<?xml version="1.0" encoding="UTF-8"?>
<!DOCTYPE svg PUBLIC "-//W3C//DTD SVG 1.1 Tiny//EN" "http://www.w3.org/Graphics/SVG/1.1/DTD/svg11-tiny.dtd">
<svg baseProfile="tiny" height="44px" version="1.1" viewBox="0.003 0 44 44" width="44px" x="0px" xmlns="http://www.w3.org/2000/svg" xmlns:xlink="http://www.w3.org/1999/xlink" y="0px">
<path d="M36.396,22.734c1.008-0.671,1.467-1.966,1.369-2.815l0.008-9.421c0.1-1.37-0.746-3.473-3.498-3.473h-9.266  c-2.374,0-3.493,1.594-3.506,3.248l-0.014-0.054c-0.264-0.931-1.217-1.398-2.057-1.174l-4.283,1.147L14,5.906  c-0.249-0.925-1.193-1.416-2.056-1.186L9.321,5.423C8.428,5.661,7.893,6.582,8.13,7.479l1.149,4.286l-4.28,1.149  c-0.893,0.237-1.427,1.158-1.189,2.055l0.696,2.611c0.266,0.985,1.261,1.408,2.058,1.189l4.283-1.149l1.152,4.305  c0.021,0.081,0.05,0.159,0.083,0.234H9.815c-1.737,0-3.501,1.008-3.501,3.403l-0.01,9.418c-0.122,1.688,1.028,3.472,3.497,3.472  h9.267c1.896,0,2.691-1,2.967-1.423c0.404,0.617,1.245,1.423,2.959,1.423h9.266c3.008,0,3.611-2.466,3.504-3.397l0.008-9.419  C37.854,24.503,37.312,23.349,36.396,22.734z M22.042,23.584c-0.418-0.646-1.279-1.424-2.959-1.424h-1.881  c0.567-0.395,0.854-1.116,0.667-1.816l-1.152-4.292l4.291-1.15c0.178-0.048,0.346-0.125,0.496-0.227l-0.006,5.171  c-0.084,1.178,0.5,2.306,1.379,2.896C22.62,22.91,22.305,23.181,22.042,23.584z" fill-opacity="0.2" stroke-opacity="0.2"/>
<path d="M12.964,21.663c0.091,0.334,0.446,0.582,0.834,0.479l2.625-0.705c0.361-0.1,0.576-0.472,0.479-0.834  l-1.41-5.258l5.253-1.408c0.357-0.097,0.586-0.47,0.482-0.837l-0.223-0.833c0,0-7.489,0.591-11.426-5.877  C9.215,6.486,9,6.858,9.096,7.221l1.408,5.252l-5.247,1.408c-0.362,0.097-0.577,0.469-0.481,0.831l0.695,2.608  c0.097,0.357,0.466,0.585,0.834,0.484l5.249-1.408L12.964,21.663z M24.995,22.314h9.266c2.688,0,2.504-2.396,2.504-2.396  l0.012-1.904H22.508l-0.014,1.904C22.495,21.522,23.515,22.314,24.995,22.314z M22.508,33.152l-0.014,1.902  c0,1.494,0.895,2.398,2.5,2.398h9.266c2.688,0,2.504-2.398,2.504-2.398l0.012-1.902H22.508z M7.314,33.152l-0.013,1.902  c0,1.225,0.646,2.398,2.5,2.398h9.267c2.686,0,2.504-2.398,2.504-2.398l0.01-1.902H7.314z" fill-opacity="0.5" stroke-opacity="0.5"/>
<linearGradient gradientTransform="matrix(0.9659 -0.2588 0.2588 0.9659 -1.1695 4.4663)" gradientUnits="userSpaceOnUse" id="SVGID_1_" x1="11.5015" x2="11.5015" y1="1.4536" y2="24.9693">
<stop offset="0" style="stop-color:#AED63A"/>
<stop offset="1" style="stop-color:#0F581C"/>
</linearGradient>
<path d="M13.798,21.142c-0.388,0.104-0.743-0.145-0.834-0.479l-1.41-5.267l-5.249,1.408  c-0.368,0.101-0.737-0.127-0.834-0.484l-0.695-2.608c-0.096-0.362,0.119-0.734,0.481-0.831l5.247-1.408L9.096,6.221  C9,5.858,9.215,5.486,9.578,5.39l2.625-0.703c0.362-0.097,0.733,0.116,0.831,0.479l1.408,5.252l5.248-1.406  c0.346-0.092,0.729,0.099,0.836,0.479l0.701,2.608c0.104,0.367-0.125,0.74-0.482,0.837l-5.253,1.408l1.41,5.258  c0.098,0.362-0.117,0.734-0.479,0.834L13.798,21.142L13.798,21.142z" fill="url(#SVGID_1_)"/>
<linearGradient gradientUnits="userSpaceOnUse" id="SVGID_2_" x1="14.2378" x2="14.239" y1="10.415" y2="21.2101">
<stop offset="0" style="stop-color:#AED63A"/>
<stop offset="1" style="stop-color:#0F581C"/>
</linearGradient>
<path d="M16.901,19.603l-1.41-5.258l-1.225-0.707l1.587,5.916l-2.007,0.539l-1.586-5.921l-0.707,1.225  l1.41,5.267c0.103,0.38,0.491,0.57,0.834,0.479l2.625-0.705C16.83,20.328,16.984,19.913,16.901,19.603z" fill="url(#SVGID_2_)"/>
<linearGradient gradientUnits="userSpaceOnUse" id="SVGID_3_" x1="10.8931" x2="14.0335" y1="5.0503" y2="16.7704">
<stop offset="0" style="stop-color:#AED63A"/>
<stop offset="1" style="stop-color:#0F581C"/>
</linearGradient>
<path d="M13.034,5.166c-0.101-0.371-0.476-0.573-0.831-0.479L9.578,5.39C9.173,5.495,9.012,5.904,9.096,6.221  l1.408,5.252l1.225,0.707l-1.583-5.906l2.006-0.538l1.584,5.907l0.707-1.225L13.034,5.166z" fill="url(#SVGID_3_)"/>
<linearGradient gradientUnits="userSpaceOnUse" id="SVGID_4_" x1="12.4756" x2="13.5305" y1="10.9512" y2="14.8881">
<stop offset="0" style="stop-color:#AED63A"/>
<stop offset="1" style="stop-color:#0F581C"/>
</linearGradient>
<path d="M21.227,12.1l-0.701-2.608c-0.1-0.352-0.461-0.579-0.836-0.479l-5.248,1.406l-0.707,1.225  l5.908-1.583l0.535,1.993l-5.912,1.585l1.225,0.707l5.253-1.408C21.18,12.819,21.307,12.395,21.227,12.1z M6.354,15.756l-0.53-1.992  l5.904-1.584l-1.225-0.707l-5.247,1.408c-0.381,0.103-0.573,0.489-0.481,0.831l0.695,2.608c0.101,0.372,0.48,0.581,0.834,0.484  l5.249-1.408l0.707-1.225L12.26,14.17L6.354,15.756z" fill="url(#SVGID_4_)"/>
<rect fill="none" height="44" width="44.007"/>
<linearGradient gradientUnits="userSpaceOnUse" id="SVGID_5_" x1="29.6357" x2="29.6357" y1="7.1211" y2="21.0072">
<stop offset="0" style="stop-color:#3687FF"/>
<stop offset="1" style="stop-color:#051F7D"/>
</linearGradient>
<path d="M34.274,7.025h-9.266c-2.688,0-2.5,2.4-2.5,2.4l-0.014,9.492c0,1.06,0.504,2.396,2.5,2.396h9.266  c2.688,0,2.504-2.396,2.504-2.396l0.012-9.492C36.776,7.871,35.796,7.025,34.274,7.025z" fill="url(#SVGID_5_)"/>
<linearGradient gradientUnits="userSpaceOnUse" id="SVGID_6_" x1="22.0386" x2="22.0386" y1="22.2559" y2="36.1462">
<stop offset="0" style="stop-color:#3687FF"/>
<stop offset="1" style="stop-color:#051F7D"/>
</linearGradient>
<path d="M36.776,24.564c0-1.428-0.834-2.404-2.502-2.404h-9.266c-2.688,0-2.5,2.404-2.5,2.404l-0.014,9.49  c0,1.032,0.482,2.398,2.5,2.398h9.266c2.688,0,2.504-2.398,2.504-2.398L36.776,24.564z M19.083,22.16H9.815  c-2.686,0-2.501,2.404-2.501,2.404l-0.013,9.49c0,1.712,1.171,2.398,2.5,2.398h9.267c2.686,0,2.504-2.398,2.504-2.398l0.01-9.49  C21.583,23.199,20.803,22.16,19.083,22.16z" fill="url(#SVGID_6_)"/>
<path d="M23.714,20.01c-0.313-0.303-0.354-0.756-0.354-1.006L23.349,9.34  c0.064-1.104,0.688-1.424,1.648-1.451h9.266c0.789,0.021,1.096,0.213,1.293,0.44l0.615-0.622c-0.367-0.383-0.953-0.682-1.896-0.682  h-9.266c-2.688,0-2.5,2.4-2.5,2.4l-0.014,9.492c0,0-0.072,1.002,0.604,1.713L23.714,20.01z M25.009,22.16  c-2.688,0-2.5,2.404-2.5,2.404l-0.014,9.49c0,0-0.072,1.002,0.604,1.715l0.615-0.621c-0.313-0.304-0.354-0.758-0.354-1.006  l-0.012-9.666c0.064-1.104,0.688-1.422,1.648-1.449h9.266c0.789,0.021,1.096,0.211,1.293,0.438l0.615-0.62  c-0.367-0.387-0.953-0.686-1.896-0.686H25.009z M9.815,22.16c-2.686,0-2.501,2.404-2.501,2.404l-0.013,9.49  c0,0-0.073,1.002,0.605,1.715l0.615-0.621c-0.313-0.304-0.354-0.758-0.354-1.006l-0.012-9.666c0.064-1.104,0.688-1.422,1.647-1.449  h9.266c0.789,0.021,1.094,0.211,1.293,0.438l0.615-0.62c-0.367-0.387-0.953-0.686-1.896-0.686H9.815z" fill="#FFFFFF" fill-opacity="0.3" stroke-opacity="0.3"/>
<path d="M34.261,21.314c2.688,0,2.504-2.396,2.504-2.396l0.012-9.492c0,0,0.072-1.01-0.605-1.719l-0.615,0.622  c0.332,0.325,0.359,0.875,0.355,1.011c0,0,0.006,9.619,0.006,9.664c-0.039,1.08-0.684,1.418-1.645,1.439h-9.266  c-0.783-0.016-1.094-0.211-1.293-0.434l-0.615,0.621c0.369,0.385,0.953,0.684,1.896,0.684H34.261z M35.556,23.466  c0.332,0.325,0.359,0.874,0.355,1.011c0,0,0.006,9.621,0.006,9.666c-0.039,1.08-0.684,1.418-1.645,1.438h-9.266  c-0.783-0.014-1.094-0.209-1.293-0.432l-0.615,0.621c0.369,0.383,0.953,0.684,1.896,0.684h9.266c2.688,0,2.504-2.398,2.504-2.398  l0.012-9.49c0,0,0.072-1.009-0.605-1.719L35.556,23.466z M20.364,23.466c0.33,0.325,0.359,0.874,0.355,1.011  c0,0,0.006,9.621,0.006,9.666c-0.041,1.08-0.686,1.418-1.645,1.438H9.813c-0.783-0.014-1.094-0.209-1.291-0.432L7.907,35.77  c0.369,0.383,0.953,0.684,1.895,0.684h9.267c2.686,0,2.504-2.398,2.504-2.398l0.01-9.49c0,0,0.074-1.009-0.604-1.719L20.364,23.466z  " fill-opacity="0.2" stroke-opacity="0.2"/>
</svg>
