<?xml version="1.0" encoding="UTF-8"?>
<!DOCTYPE svg PUBLIC "-//W3C//DTD SVG 1.1 Tiny//EN" "http://www.w3.org/Graphics/SVG/1.1/DTD/svg11-tiny.dtd">
<svg width="16" height="16" viewBox="0 0 16 16">
<path fill="#496DA2" d="M10.61,7.411H9.651v0.003l-2.188,8.539c0.62-0.047,1.979-0.227,3.015-0.583 c2.477-0.776,2.543-3.669,2.543-3.669c0.02-0.002,0.021-0.004,0-0.004l0.156-5.019L10.61,7.411z"/>
<path fill="#A2C2DD" d="M10.492,12.252c0-0.011,0-4.838,0-4.838l-9.94-0.557l0.112,4.63c0.053,1.974,1.425,3.954,2.82,4.091 l3.802,0.377C8.292,15.861,10.354,14.993,10.492,12.252z"/>
<path fill="#496DA2" d="M6.105,10.902c0.613-0.453,0.605-1.24,0.189-1.717C5.977,8.824,5.549,8.795,5.538,8.794 C5.527,8.793,5.239,8.719,4.781,9.022c-0.417,0.387-0.425,1.172,0.189,1.757L4.619,13.23l1.925,0.193L6.105,10.902z"/>
<path fill="#235487" d="M5.148,10.779c0,0-0.237-0.098-0.444-0.66C4.526,8.994,5.291,8.857,5.279,8.855 c-0.011,0-0.298-0.075-0.756,0.229c-0.417,0.387-0.425,1.172,0.189,1.756l-0.352,2.452l0.521-0.095L5.148,10.779z"/>
<polygon fill="#CEE1EF" points="13.177,6.66 3.135,6.063 0.552,6.857 10.789,7.411 "/>
<path fill="#496DA2" d="M5.071,6.567c0-0.49-0.192-1.703,0.785-1.989c1.624-0.475,2.268,0.99,2.268,2.262 c0,0.491,2.336,0.379,2.309-0.17c-0.027-0.548-0.279-3.594-2.84-4.136C2.985,2.016,2.76,6.01,2.906,6.567 C3.033,7.049,5.071,6.878,5.071,6.567z"/>
</svg>