<?xml version="1.0" encoding="UTF-8"?>
<!DOCTYPE svg PUBLIC "-//W3C//DTD SVG 1.1 Tiny//EN" "http://www.w3.org/Graphics/SVG/1.1/DTD/svg11-tiny.dtd">
<svg width="100%" height="100%" viewBox="0 0 88 88">
<linearGradient id="_12" gradientUnits="userSpaceOnUse" x1="44.68" y1="44.13" x2="62.99" y2="80.2">
<stop stop-color="#A2C2DD" offset="0.1"/>
<stop stop-color="#6C83BB" offset="0.71"/>
<stop stop-color="#003D6D" offset="0.99"/>
</linearGradient>
<path fill="url(#_12)" d="M14.475,14.003c0,0,0.809,11.089,0.952,13.061c-5.274-2.117-12.123,2.153-12.088,8.081 c0.032,5.237,6.587,11.975,13.074,9.778l0.983,16.064l19.536,6.212l3.87-3.304c-1.391-1.28-4.237-6.712-0.913-10.679 c1.636,0.074,3.803,1.019,5.318,3.341c-0.755,0.446-2.435,1.438-2.435,1.438l1.769,18.358l15.22,5.217L70.69,74.02 c0,0,0.713-11.908,0.78-13.026c6.92-0.28,10.947-6.543,10.947-11.571c0-6.004-4.893-12.288-12.286-12.695 c0.042-1.229,0.537-15.648,0.537-15.648l-23.381-4.272l-4.885,3.214c3.509,4.846,3.525,10.268,1.019,13.249 c-3.51,2.305-11.719-5.695-4.459-17.366l-20.704-3.978L14.475,14.003z"/>
<linearGradient id="_13" gradientUnits="userSpaceOnUse" x1="48.4" y1="45.14" x2="26.4" y2="15.64">
<stop stop-color="#FFFFFF" offset="0"/>
<stop stop-color="#A2C2DD" offset="0.35"/>
<stop stop-color="#6C83BB" offset="0.7"/>
<stop stop-color="#003D6D" offset="1"/>
</linearGradient>
<path fill="url(#_13)" d="M24.994,28.365l8.648-9.673l4.228-2.288c-6.905,12.095,2.267,20.532,6.18,17.29 c-0.206,0.233-1.306,5.171-1.306,5.171L24.994,28.365z"/>
<linearGradient id="_14" gradientUnits="userSpaceOnUse" x1="49.78" y1="73.59" x2="33.78" y2="54.09">
<stop stop-color="#FFFFFF" offset="0"/>
<stop stop-color="#A2C2DD" offset="0.35"/>
<stop stop-color="#6C83BB" offset="0.7"/>
<stop stop-color="#003D6D" offset="1"/>
</linearGradient>
<path fill="url(#_14)" d="M39.571,52.482c-3.281,3.521-1.765,8.89,0.253,11.328l-3.05,2.604L20.548,42.523L39.571,52.482z "/>
<linearGradient id="_15" gradientUnits="userSpaceOnUse" x1="66.5" y1="18.51" x2="66.79" y2="46.9">
<stop stop-color="#FFFFFF" offset="0"/>
<stop stop-color="#A2C2DD" offset="0.35"/>
<stop stop-color="#6C83BB" offset="0.7"/>
<stop stop-color="#003D6D" offset="1"/>
</linearGradient>
<polygon fill="url(#_15)" points="63.325,42.008 63.278,24.622 69.948,21.658 69.371,38.502 "/>
<linearGradient id="_16" gradientUnits="userSpaceOnUse" x1="25.65" y1="17.91" x2="27.75" y2="12.21">
<stop stop-color="#FFFFFF" offset="0.05"/>
<stop stop-color="#A2C2DD" offset="1"/>
</linearGradient>
<polygon fill="url(#_16)" points="15.205,14.4 18.376,12.659 37.964,16.356 33.643,18.692 "/>
<linearGradient id="_17" gradientUnits="userSpaceOnUse" x1="55.45" y1="24.23" x2="58.18" y2="16.83">
<stop stop-color="#FFFFFF" offset="0.05"/>
<stop stop-color="#A2C2DD" offset="1"/>
</linearGradient>
<polygon fill="url(#_17)" points="43.376,20.218 47.438,17.545 69.948,21.658 63.807,24.622 "/>
<linearGradient id="_18" gradientUnits="userSpaceOnUse" x1="9.41" y1="29.03" x2="15.24" y2="32.03">
<stop stop-color="#FFFFFF" offset="0.05"/>
<stop stop-color="#A2C2DD" offset="1"/>
</linearGradient>
<path fill="url(#_18)" d="M5.168,31.243c3.055-4.432,8.436-4.929,11.075-3.032l0.301,3.842L5.168,31.243z"/>
<linearGradient id="_19" gradientUnits="userSpaceOnUse" x1="66" y1="32.31" x2="81.16" y2="58.31">
<stop stop-color="#FFFFFF" offset="0"/>
<stop stop-color="#A2C2DD" offset="0.35"/>
<stop stop-color="#6C83BB" offset="0.7"/>
<stop stop-color="#003D6D" offset="1"/>
</linearGradient>
<path fill="url(#_19)" d="M63.479,40.737l5.963-3.383c7.639-1.027,18.434,11.723,8.048,20.789L63.479,40.737z"/>
<linearGradient id="_20" gradientUnits="userSpaceOnUse" x1="53.27" y1="11.98" x2="36.67" y2="58.23">
<stop stop-color="#FFFFFF" offset="0.05"/>
<stop stop-color="#A2C2DD" offset="1"/>
</linearGradient>
<path fill="url(#_20)" d="M63.543,40.685c7.758-3.933,16.752,4.756,16.232,11.543c-0.824,10.789-12.64,9.004-16.388,5.077 L45.833,69.03c4.174-3.883,1.91-14.799-4.674-16.367c-6.584-1.569-9.549,7.171-4.385,13.751l-18.709-5.948l-1.01-16.502 c-6.7,3.158-12.989-4.322-13.017-8.823c-0.04-6.581,7.252-8.843,12.437-3.323L15.205,14.4l18.438,4.292 c-4.241,6.53,0.437,15.692,5.636,16.821c5.2,1.128,9.505-7.159,4.098-15.296l20.431,4.404L63.543,40.685z"/>
<polygon fill="#A15EB6" points="59.654,80.794 45.195,75.838 43.51,58.344 60.175,62.587 "/>
<polygon fill="#5E1B67" points="59.654,80.794 70.012,73.638 71.094,55.58 59.654,62.587 "/>
<linearGradient id="_21" gradientUnits="userSpaceOnUse" x1="43.41" y1="57.36" x2="71.04" y2="57.36">
<stop stop-color="#DEDEED" offset="0"/>
<stop stop-color="#9646AC" offset="1"/>
</linearGradient>
<polygon fill="url(#_21)" points="43.408,58.344 59.654,62.587 71.042,55.58 54.517,52.14 "/>
<linearGradient id="_22" gradientUnits="userSpaceOnUse" x1="32.16" y1="82.01" x2="58.74" y2="74.55">
<stop stop-color="#DEDEED" offset="0"/>
<stop stop-color="#9646AC" offset="1"/>
</linearGradient>
<polygon fill="url(#_22)" points="58.806,67.904 59.629,80.923 45.193,75.631 "/>
<rect fill="none" height="88" width="88"/>
</svg>